<svg height="100%" viewBox="0 -32 384 384" width="100%" xmlns="http://www.w3.org/2000/svg"><path d="m328.441406 208.023438-57.074218-196.488282c-1.984376-6.832031-8.246094-11.535156-15.367188-11.535156h-48c-8.832031 0-16 7.167969-16 16s7.167969 16 16 16h35.984375l35.039063 120.625-63.582032 95.375h-103.441406v-32c0-35.289062-28.710938-64-64-64h-32c-8.832031 0-16 7.167969-16 16s7.167969 16 16 16h32c16.742188 0 30.359375 12.960938 31.734375 29.351562-7.222656-3.398437-15.246094-5.351562-23.734375-5.351562-30.871094 0-56 25.128906-56 56s25.128906 56 56 56c25.3125 0 46.734375-16.902344 53.640625-40h114.359375c5.351562 0 10.34375-2.671875 13.3125-7.128906l53.382812-80.070313 7.023438 24.167969c-15.445312 9.984375-25.71875 27.320312-25.71875 47.03125 0 30.871094 25.128906 56 56 56s56-25.128906 56-56c0-30.726562-24.886719-55.734375-55.558594-55.976562zm-272.441406 79.976562c-13.230469 0-24-10.769531-24-24s10.769531-24 24-24 24 10.769531 24 24-10.769531 24-24 24zm272 0c-13.230469 0-24-10.769531-24-24s10.769531-24 24-24 24 10.769531 24 24-10.769531 24-24 24zm0 0"/></svg>