<?xml version="1.0" standalone="no"?>
<!DOCTYPE svg PUBLIC "-//W3C//DTD SVG 20010904//EN"
 "http://www.w3.org/TR/2001/REC-SVG-20010904/DTD/svg10.dtd">
<svg version="1.0" xmlns="http://www.w3.org/2000/svg"
 width="800.000000pt" height="800.000000pt" viewBox="0 0 800.000000 800.000000"
 preserveAspectRatio="xMidYMid meet">
<metadata>
Created by potrace 1.11, written by Peter Selinger 2001-2013
</metadata>
<g transform="translate(0.000000,800.000000) scale(0.100000,-0.100000)"
fill="#000000" stroke="none">
<path d="M4785 7240 c-330 -18 -584 -77 -688 -160 -64 -51 -75 -170 -21 -232
38 -45 67 -58 126 -58 44 0 104 21 118 40 7 11 97 37 165 50 97 17 287 31 490
37 164 4 193 3 204 -10 7 -9 15 -50 18 -91 9 -123 -15 -156 -115 -156 -109 0
-430 -51 -637 -102 -110 -27 -403 -116 -450 -138 -11 -5 -67 -28 -125 -51 -95
-37 -408 -186 -420 -199 -3 -3 -27 -19 -55 -34 -27 -16 -73 -44 -102 -62 -28
-19 -54 -34 -58 -34 -3 0 -15 -9 -27 -20 -12 -11 -28 -20 -35 -20 -7 0 -13 -4
-13 -9 0 -5 -8 -12 -19 -16 -10 -3 -31 -17 -47 -30 -16 -14 -34 -25 -40 -25
-7 0 -14 -7 -18 -15 -3 -8 -10 -15 -17 -15 -10 0 -83 -54 -120 -90 -9 -8 -26
-22 -39 -30 -12 -8 -36 -28 -54 -45 -18 -16 -54 -48 -80 -70 -62 -53 -396
-384 -396 -393 0 -4 -20 -25 -45 -49 -25 -23 -45 -45 -45 -50 0 -5 -8 -16 -17
-25 -10 -9 -26 -27 -35 -40 -10 -13 -35 -45 -55 -73 -21 -27 -46 -57 -55 -66
-10 -9 -18 -19 -18 -22 0 -9 -93 -142 -102 -145 -4 -2 -8 -8 -8 -13 0 -5 -31
-56 -70 -113 -38 -58 -70 -109 -70 -115 0 -5 -6 -16 -12 -23 -16 -17 -40 -59
-68 -118 -11 -24 -24 -47 -28 -50 -7 -5 -55 -101 -111 -223 -109 -236 -241
-595 -282 -770 -11 -44 -27 -92 -36 -108 -18 -30 -26 -33 -143 -48 -80 -11
-186 -40 -260 -73 -66 -29 -134 -62 -140 -69 -3 -3 -21 -14 -40 -25 -19 -10
-43 -27 -54 -36 -11 -10 -23 -18 -27 -18 -14 0 -179 -154 -179 -167 0 -5 -12
-19 -25 -32 -33 -31 -130 -188 -167 -271 -16 -36 -40 -103 -54 -149 -22 -77
-24 -100 -24 -301 0 -203 2 -224 25 -306 14 -49 29 -98 34 -109 25 -58 88
-181 98 -193 7 -7 13 -20 13 -28 0 -8 4 -14 10 -14 5 0 16 -13 24 -28 15 -30
105 -123 181 -187 26 -22 54 -47 64 -55 9 -8 29 -21 44 -29 15 -8 35 -21 45
-30 22 -19 127 -72 202 -101 149 -58 377 -88 532 -70 180 21 374 93 523 193
70 47 285 261 285 282 0 8 4 15 8 15 12 0 88 135 122 216 16 38 41 114 56 169
26 91 28 115 28 265 0 139 -4 179 -23 255 -41 158 -115 334 -163 385 -10 11
-18 22 -18 25 0 4 -6 13 -12 20 -7 8 -24 29 -38 47 -14 17 -44 52 -68 77 -24
24 -47 53 -53 63 -5 10 -15 18 -22 18 -7 0 -18 9 -25 20 -7 11 -18 20 -26 20
-8 0 -16 7 -20 15 -3 8 -12 15 -21 15 -8 0 -15 4 -15 8 0 13 -138 87 -222 118
-78 29 -108 58 -108 101 0 80 162 543 267 763 20 41 46 95 57 120 12 25 24 47
27 50 4 3 17 28 30 55 13 28 29 56 36 63 7 7 16 24 19 38 3 13 10 24 14 24 5
0 12 10 16 23 4 12 10 24 14 27 4 3 25 37 48 75 23 39 45 75 50 80 5 6 17 24
28 40 10 17 27 39 36 49 10 11 18 24 18 28 0 5 11 21 25 36 14 15 25 32 25 39
0 7 4 13 8 13 4 0 16 15 27 33 10 17 29 41 42 52 13 11 23 24 23 28 0 4 10 18
23 31 12 13 37 41 55 62 92 110 307 334 319 334 4 0 30 24 59 53 51 50 90 85
164 144 19 15 44 37 55 48 12 11 41 33 66 50 24 16 46 32 49 35 3 3 26 19 52
35 27 17 48 33 48 38 0 4 4 7 9 7 7 0 129 75 156 97 6 4 44 26 85 47 41 22 77
42 80 45 8 11 209 106 315 150 55 23 109 46 120 51 28 12 288 95 355 114 306
83 707 131 741 89 11 -12 15 -64 17 -211 2 -108 1 -210 -3 -229 -8 -46 -37
-61 -136 -73 -147 -18 -392 -79 -544 -137 -86 -32 -319 -139 -340 -156 -20
-16 -128 -77 -135 -77 -5 0 -10 -4 -12 -8 -2 -7 -76 -60 -135 -97 -9 -5 -24
-17 -33 -25 -9 -8 -29 -24 -44 -35 -28 -20 -336 -323 -336 -331 0 -4 -36 -48
-62 -76 -10 -10 -18 -22 -18 -28 0 -5 -6 -13 -13 -17 -8 -4 -24 -27 -37 -50
-13 -24 -27 -43 -32 -43 -4 0 -8 -5 -8 -10 0 -12 -52 -94 -62 -98 -5 -2 -8
-10 -8 -17 0 -8 -6 -20 -12 -27 -15 -15 -128 -240 -128 -253 0 -5 -9 -27 -19
-49 -32 -68 -87 -246 -123 -392 l-33 -139 0 -360 c0 -337 1 -367 23 -465 56
-260 145 -511 243 -686 32 -59 59 -108 59 -111 0 -2 5 -9 10 -16 21 -25 60
-88 60 -97 0 -6 4 -10 9 -10 5 0 12 -8 16 -19 3 -10 13 -28 23 -39 9 -11 24
-30 32 -43 8 -12 25 -31 38 -42 12 -11 22 -25 22 -29 0 -15 151 -170 256 -263
31 -27 69 -62 85 -77 15 -16 33 -28 39 -28 5 0 10 -3 10 -8 0 -4 18 -18 40
-32 22 -14 40 -28 40 -32 0 -5 7 -8 15 -8 9 0 18 -7 21 -15 4 -8 12 -15 18
-15 7 0 21 -8 32 -18 62 -58 374 -211 576 -282 225 -79 542 -129 814 -130 119
0 372 32 509 65 132 32 352 102 360 116 4 5 14 9 23 9 18 0 305 141 332 163 8
7 27 19 43 27 15 7 27 17 27 22 0 4 7 8 15 8 8 0 15 5 15 10 0 6 7 10 15 10 8
0 15 4 15 9 0 5 8 12 18 15 9 3 29 16 44 28 14 13 38 32 53 42 97 72 204 172
315 296 36 39 71 78 78 85 6 8 12 16 12 19 0 3 8 15 18 25 30 34 38 45 117
167 74 114 162 273 196 359 76 188 84 209 143 425 39 143 51 278 51 560 -1
239 -4 290 -23 392 -33 180 -98 420 -122 453 -4 6 -10 24 -14 40 -7 30 -133
295 -145 305 -3 3 -17 26 -31 53 -13 26 -28 47 -32 47 -5 0 -8 5 -8 10 0 9
-69 117 -95 147 -5 7 -19 24 -30 39 -11 15 -32 39 -47 55 -16 16 -28 31 -28
34 0 4 -18 24 -40 46 -22 22 -40 43 -40 46 0 4 -50 56 -111 115 -133 130 -197
179 -444 336 -11 7 -36 20 -55 30 -19 9 -55 29 -80 44 -135 78 -568 214 -745
233 -118 12 -161 25 -173 48 -9 16 -13 205 -14 652 -3 519 -5 635 -17 658 -8
15 -18 27 -23 27 -4 0 -8 6 -8 14 0 8 -16 23 -36 35 -33 20 -48 21 -282 19
-136 -1 -305 -4 -377 -8z m413 -2549 c1 -479 -2 -789 -7 -794 -11 -11 -68 46
-106 104 -13 20 -30 42 -37 50 -8 8 -23 28 -33 44 -20 32 -31 46 -65 83 -11
12 -20 24 -20 27 0 6 -8 17 -45 59 -14 16 -25 32 -25 35 0 3 -14 22 -30 41
-45 53 -45 54 -53 73 -3 9 -11 17 -17 17 -5 0 -10 5 -10 11 0 6 -17 32 -37 57
-21 26 -41 51 -45 57 -5 5 -23 29 -40 51 -18 23 -42 54 -53 69 -11 16 -24 33
-30 39 -5 6 -26 34 -45 61 -39 57 -58 80 -82 107 -10 10 -18 22 -18 28 0 5 -6
13 -13 17 -8 4 -17 15 -20 23 -4 8 -23 35 -42 60 -80 104 -96 130 -90 150 3
10 15 22 25 25 11 4 26 12 32 18 12 12 231 121 273 137 222 81 476 140 585
137 l45 -2 3 -784z m482 775 c134 -16 316 -57 345 -76 6 -4 21 -10 35 -13 52
-11 264 -100 280 -117 3 -3 35 -20 72 -39 37 -19 76 -42 87 -52 11 -11 25 -19
31 -19 5 0 10 -3 10 -8 0 -4 13 -13 28 -20 16 -6 37 -20 48 -30 10 -10 27 -23
36 -28 60 -34 266 -236 280 -274 11 -32 -2 -60 -27 -60 -7 0 -15 -7 -19 -15
-3 -8 -12 -15 -21 -15 -8 0 -15 -4 -15 -10 0 -5 -6 -10 -13 -10 -7 0 -18 -9
-25 -20 -7 -11 -19 -20 -27 -20 -8 0 -15 -4 -15 -8 0 -5 -21 -24 -47 -42 -27
-19 -50 -37 -53 -41 -3 -4 -30 -24 -60 -45 -30 -20 -57 -41 -58 -46 -2 -5 -18
-16 -35 -25 -18 -9 -38 -24 -45 -34 -7 -11 -20 -19 -28 -19 -8 0 -14 -3 -14
-7 0 -5 -16 -19 -35 -32 -19 -13 -43 -31 -54 -40 -11 -9 -32 -25 -47 -36 -15
-11 -60 -45 -99 -75 -40 -30 -83 -62 -95 -70 -12 -8 -28 -21 -36 -27 -7 -7
-16 -13 -21 -13 -4 0 -14 -9 -21 -20 -7 -11 -19 -20 -26 -20 -8 0 -16 -3 -18
-8 -4 -9 -84 -72 -92 -72 -3 0 -16 -9 -28 -20 -43 -39 -53 -47 -83 -66 -16
-10 -37 -26 -47 -34 -31 -28 -47 -40 -53 -40 -3 0 -14 -8 -24 -17 -53 -48 -84
-65 -105 -57 -14 6 -16 94 -16 873 0 477 3 871 7 874 8 9 8 9 143 -7z m-1674
-568 c16 -24 35 -49 42 -56 6 -7 12 -17 12 -22 0 -4 12 -22 28 -39 37 -42 44
-51 72 -91 14 -19 35 -46 48 -60 13 -14 33 -41 45 -60 12 -19 32 -46 44 -60
13 -14 23 -28 23 -32 0 -3 6 -13 13 -20 7 -7 33 -40 57 -73 25 -33 50 -64 56
-70 7 -5 24 -29 39 -53 14 -24 37 -56 50 -70 26 -30 60 -74 132 -172 26 -36
52 -70 58 -76 5 -6 17 -22 25 -34 8 -12 27 -36 42 -54 15 -17 28 -35 28 -40 0
-5 10 -19 23 -31 34 -34 67 -79 67 -91 0 -7 6 -14 14 -17 19 -7 45 -62 36 -76
-5 -9 -39 -8 -135 4 -70 8 -131 18 -135 20 -5 3 -64 12 -132 20 -262 31 -411
52 -474 65 -22 5 -78 14 -125 19 -46 6 -172 22 -279 36 -107 15 -229 30 -270
35 -101 11 -110 16 -110 54 0 43 45 206 71 258 5 10 9 24 9 31 0 7 13 38 29
68 16 30 37 74 47 99 10 25 21 47 24 50 4 3 20 30 36 60 16 30 35 61 41 68 7
7 13 19 13 27 0 7 7 15 15 19 8 3 15 12 15 21 0 8 3 15 8 15 4 0 18 17 32 38
14 20 29 42 35 48 24 28 45 55 45 58 0 2 22 26 48 52 27 27 51 54 53 59 8 19
124 114 140 115 9 0 29 -19 45 -42z m3185 -440 c43 -76 78 -142 94 -178 9 -19
28 -60 42 -90 14 -30 32 -75 39 -100 7 -25 20 -65 28 -90 32 -98 56 -184 56
-203 0 -11 9 -68 20 -126 16 -85 20 -138 18 -266 l-3 -160 -55 3 c-30 2 -116
11 -190 22 -74 10 -164 22 -200 25 -36 4 -92 13 -125 21 -33 7 -107 18 -165
24 -58 6 -130 15 -160 20 -61 10 -263 37 -380 50 -41 5 -96 13 -123 19 -26 6
-91 16 -145 21 -53 6 -105 13 -114 16 -27 8 -21 30 15 55 17 13 37 28 43 34 6
5 22 17 35 25 12 8 33 25 46 38 13 12 28 22 33 22 6 0 10 4 10 9 0 5 8 12 18
15 9 3 33 20 52 37 19 16 47 37 63 45 15 8 27 18 27 22 0 4 12 15 28 24 15 9
37 25 49 35 12 10 34 27 49 38 15 11 33 26 40 33 7 6 17 12 23 12 6 0 11 4 11
8 0 4 20 21 45 36 25 16 45 33 45 37 0 5 4 9 10 9 10 0 44 26 82 63 10 9 21
17 26 17 4 0 19 10 34 23 34 28 60 48 89 67 12 8 33 25 47 38 14 12 40 32 59
43 18 11 33 25 33 30 0 5 5 9 12 9 6 0 18 7 27 15 9 9 48 38 86 65 39 28 84
61 100 75 85 69 93 70 126 13z m-3767 -989 c59 -5 111 -11 115 -13 4 -3 54
-10 111 -16 58 -6 137 -17 177 -25 40 -8 97 -15 127 -15 30 0 65 -4 78 -10 21
-9 189 -33 428 -62 47 -5 135 -18 195 -28 61 -10 140 -22 177 -25 89 -9 101
-26 50 -74 -20 -18 -57 -47 -82 -64 -25 -17 -47 -33 -50 -37 -3 -3 -23 -19
-45 -35 -22 -17 -42 -32 -45 -35 -9 -10 -69 -50 -74 -50 -2 0 -21 -16 -42 -35
-20 -19 -43 -35 -51 -35 -7 0 -16 -7 -19 -15 -4 -8 -10 -15 -15 -15 -8 0 -18
-7 -70 -55 -9 -8 -19 -15 -22 -15 -4 0 -15 -8 -26 -17 -10 -10 -53 -43 -96
-73 -43 -30 -85 -63 -94 -72 -8 -10 -21 -18 -28 -18 -7 0 -13 -4 -13 -8 0 -5
-30 -30 -67 -57 -38 -27 -69 -53 -71 -57 -2 -5 -10 -8 -17 -8 -7 0 -15 -4 -17
-8 -1 -5 -30 -28 -63 -53 -33 -24 -69 -52 -80 -62 -11 -10 -35 -28 -53 -39
-19 -11 -48 -34 -65 -49 -17 -16 -37 -29 -44 -29 -7 0 -13 -4 -13 -9 0 -13
-25 -20 -47 -15 -19 5 -80 97 -115 174 -69 149 -89 199 -120 300 -73 233 -90
335 -96 551 -3 109 -2 205 2 214 5 14 13 16 39 11 17 -4 81 -11 141 -17z
m2536 -348 c47 -5 105 -14 130 -20 25 -6 154 -25 288 -41 134 -17 274 -37 313
-45 39 -8 88 -15 110 -15 22 0 90 -9 152 -19 62 -11 144 -23 182 -26 39 -4 95
-13 126 -21 31 -8 82 -14 113 -14 83 0 82 10 6 -236 -33 -103 -107 -277 -121
-282 -5 -2 -9 -11 -9 -20 0 -9 -11 -32 -23 -51 -47 -72 -62 -97 -74 -123 -7
-16 -17 -28 -23 -28 -5 0 -10 -6 -10 -13 0 -13 -21 -44 -51 -77 -9 -10 -21
-24 -25 -32 -33 -56 -243 -278 -263 -278 -6 0 -19 8 -28 18 -34 35 -63 72 -63
80 0 4 -18 27 -40 52 -22 25 -40 48 -40 53 0 4 -8 15 -18 25 -11 11 -34 41
-52 68 -19 27 -42 56 -52 65 -10 9 -18 21 -18 28 0 6 -4 11 -10 11 -5 0 -10 4
-10 10 0 5 -8 19 -17 31 -10 11 -25 29 -34 39 -8 10 -24 31 -35 46 -10 15 -26
34 -34 43 -8 9 -21 29 -29 44 -8 15 -18 27 -23 27 -4 0 -8 5 -8 10 0 6 -12 23
-26 38 -14 15 -33 39 -42 55 -9 15 -20 27 -24 27 -4 0 -8 6 -8 13 0 7 -8 20
-17 29 -21 19 -32 33 -54 68 -9 14 -25 35 -35 47 -11 11 -26 31 -34 43 -23 35
-64 85 -72 88 -5 2 -8 9 -8 15 0 7 -14 26 -30 44 -17 18 -30 36 -30 40 0 5
-13 23 -30 41 -16 18 -30 36 -30 40 0 4 -9 14 -20 22 -11 8 -20 19 -20 24 0 5
-7 17 -16 27 -9 10 -14 26 -10 35 5 14 15 15 59 10 28 -4 90 -10 137 -15z
m-834 -186 c7 -19 -12 -218 -31 -330 -8 -44 -17 -111 -20 -150 -4 -38 -13
-103 -21 -144 -8 -40 -19 -115 -24 -165 -13 -119 -37 -284 -61 -422 -10 -61
-19 -129 -19 -152 0 -23 -5 -64 -11 -91 -6 -28 -14 -81 -17 -118 l-7 -68 -40
3 c-83 7 -385 117 -475 173 -8 5 -40 22 -70 38 -30 16 -72 41 -93 55 -21 14
-42 26 -47 26 -4 0 -10 3 -12 8 -5 11 -66 52 -78 52 -5 0 -10 4 -10 8 0 5 -20
23 -44 40 -85 61 -256 229 -256 252 0 8 21 33 48 55 26 22 49 43 50 47 2 4 10
8 18 8 7 0 28 15 46 33 18 18 55 45 81 60 27 16 51 35 54 43 3 8 11 14 19 14
8 0 14 5 14 10 0 6 6 10 13 10 7 0 20 8 28 18 9 9 26 24 39 32 13 8 34 25 47
38 13 12 26 22 29 22 3 0 11 6 19 13 26 24 55 47 61 47 4 0 14 8 23 19 9 10
31 26 49 35 29 15 56 36 113 89 10 9 21 17 24 17 6 0 22 12 53 40 10 8 30 23
45 33 16 10 36 25 45 32 9 8 46 36 82 62 36 26 72 53 80 60 8 7 44 33 80 60
36 26 67 50 70 53 3 3 19 16 35 28 35 25 63 28 71 7z m394 -46 c7 -11 18 -28
26 -37 46 -52 74 -89 80 -104 3 -10 10 -18 15 -18 5 0 9 -6 9 -13 0 -7 9 -18
20 -25 11 -7 20 -19 20 -27 0 -8 4 -15 8 -15 4 0 19 -18 32 -40 14 -22 28 -40
33 -40 4 0 7 -6 7 -13 0 -7 9 -18 20 -25 11 -7 20 -19 20 -27 0 -8 3 -15 8
-15 4 0 18 -17 32 -37 14 -20 37 -51 53 -67 15 -17 27 -36 27 -43 0 -7 4 -13
10 -13 5 0 27 -26 47 -57 21 -32 44 -62 50 -66 7 -4 13 -12 13 -17 0 -5 10
-20 23 -33 12 -13 29 -33 37 -46 8 -12 27 -36 43 -54 15 -17 27 -35 27 -40 0
-6 7 -17 15 -26 40 -42 75 -87 75 -98 0 -7 4 -13 9 -13 4 0 21 -19 37 -42 16
-24 31 -45 35 -48 3 -3 18 -23 34 -45 17 -22 32 -42 35 -45 3 -3 17 -21 30
-40 13 -19 27 -37 31 -40 4 -3 10 -17 14 -31 6 -24 1 -30 -62 -65 -195 -112
-422 -202 -593 -234 -36 -7 -69 -16 -75 -21 -21 -15 -442 -37 -491 -25 -22 6
-24 11 -23 74 0 37 5 90 10 117 5 28 14 92 19 143 5 52 12 101 15 111 6 21 42
280 54 396 8 74 17 129 41 260 5 28 12 75 14 105 10 107 53 425 61 448 7 19
43 14 55 -9z"/>
</g>
</svg>
